<svg width="14" height="18" viewBox="0 0 14 18" fill="none" xmlns="http://www.w3.org/2000/svg">
<path d="M7.00065 9.00008C6.08398 9.00008 5.33398 8.25008 5.33398 7.33341C5.33398 6.41675 6.08398 5.66675 7.00065 5.66675C7.91732 5.66675 8.66732 6.41675 8.66732 7.33341C8.66732 8.25008 7.91732 9.00008 7.00065 9.00008ZM12.0007 7.50008C12.0007 4.47508 9.79232 2.33341 7.00065 2.33341C4.20898 2.33341 2.00065 4.47508 2.00065 7.50008C2.00065 9.45008 3.62565 12.0334 7.00065 15.1167C10.3757 12.0334 12.0007 9.45008 12.0007 7.50008ZM7.00065 0.666748C10.5006 0.666748 13.6673 3.35008 13.6673 7.50008C13.6673 10.2667 11.4423 13.5417 7.00065 17.3334C2.55898 13.5417 0.333984 10.2667 0.333984 7.50008C0.333984 3.35008 3.50065 0.666748 7.00065 0.666748Z" fill="#282828"/>
</svg>
